<svg xmlns="http://www.w3.org/2000/svg" viewBox="0 0 39.95 37.12"><g><g><path fill="#ff2351" d="M7.52 0v2.48H5v13.68h5.81v2.48H0v2.47h2.48v16.01H14.69v-13.4h16.62v-2.61H33.84V15.99H17.21V7.73H35.22l.01-2.78.02-2.47.02-2.48H7.52z"/><path fill="#ff2351" d="M0 13.69h2.48v2.47H0z"/><path fill="#00d8eb" d="M32.81 0H7.52v16.16h3.29v2.48H5v18.48H17.21V26.2h-2.52v-2.48H33.84v-2.61h5.18v-2.47h-2.66v-2.65H19.74V7.73h18l.02-2.78h-2.53l.02-2.47h4.7V0h-7.14z"/><path fill="#00d8eb" d="M19.69 32.17h2.48v2.47h-2.48zM22.16 34.64h2.48v2.47h-2.48z"/><path fill="#000b34" d="M31.31 23.72v-2.61H33.84V15.99H17.21V7.73H35.22l.01-2.78.02-2.47.02-2.48H7.52v16.16h3.29v2.48H5v18.48h9.69v-13.4h16.62z"/></g></g></svg>